<?xml version="1.0" encoding="UTF-8" standalone="no"?>
<!DOCTYPE svg PUBLIC "-//W3C//DTD SVG 1.1//EN" "http://www.w3.org/Graphics/SVG/1.1/DTD/svg11.dtd">
<svg width="100%" height="100%" viewBox="0 0 1772 1772" version="1.1" xmlns="http://www.w3.org/2000/svg" xmlns:xlink="http://www.w3.org/1999/xlink" xml:space="preserve" xmlns:serif="http://www.serif.com/" style="fill-rule:evenodd;clip-rule:evenodd;stroke-linecap:round;stroke-linejoin:round;stroke-miterlimit:1.5;">
    <g transform="matrix(1.50134,0,0,1,35.1479,33.8698)">
        <rect x="-62.746" y="-66.437" width="1299.21" height="1878.3" style="fill:rgb(213,181,132);fill-opacity:0.82;stroke:black;stroke-width:6.53px;"/>
    </g>
    <g transform="matrix(1.30461,0,0,1.44391,115.827,-257.034)">
        <g>
            <g>
                <g>
                    <g>
                        <path d="M590.718,499.541L480.229,505.332" style="fill:none;stroke:black;stroke-width:3.03px;"/>
                        <path d="M371.169,535.076L480.229,505.332L371.169,535.076Z" style="fill:none;stroke:black;stroke-width:3.03px;"/>
                        <path d="M228.399,646.119L371.169,535.076L228.399,646.119Z" style="fill:none;stroke:black;stroke-width:3.03px;"/>
                        <path d="M228.399,644.136L218.286,919.761L293.835,1056.58L414.793,1094.26L527.819,1173.83L589.273,1174.84" style="fill:none;stroke:black;stroke-width:3.03px;"/>
                        <path d="M228.994,646.714L194.689,568.786L210.552,408.169L325.561,483.52L371.169,533.093" style="fill:none;stroke:black;stroke-width:3.03px;"/>
                    </g>
                </g>
                <g>
                    <path d="M195.681,570.527L299.784,590.852L326.553,485.014L299.784,590.852L212.287,410.159" style="fill:none;stroke:rgb(9,0,0);stroke-width:3.03px;"/>
                    <path d="M528.658,1173.74L529.848,1064.67L589.335,1042.86L577.438,987.341L529.848,957.597L589.335,967.512" style="fill:none;stroke:rgb(9,0,0);stroke-width:3.03px;"/>
                    <path d="M591.318,931.819L535.797,939.751L529.451,957.597L535.797,939.751L498.121,884.229L591.318,931.819Z" style="fill:none;stroke:rgb(9,0,0);stroke-width:3.03px;"/>
                    <path d="M383.112,999.238L383.112,999.238Z" style="fill:none;stroke:rgb(9,0,0);stroke-width:3.03px;"/>
                    <path d="M220.315,918.335L383.112,999.238L500.104,884.229L383.112,999.238L417.218,1095.21L529.848,955.614C529.848,955.614 473.119,1021.46 476.697,1024.23C480.275,1027 531.831,1064.67 531.831,1064.67" style="fill:none;stroke:rgb(9,0,0);stroke-width:3.03px;"/>
                    <path d="M475.507,1024.23L500.104,884.229L218.911,919.611L500.104,884.229L519.933,779.135L450.531,689.904L589.335,592.741L480.473,505.096L371.611,534.641L450.531,689.904L480.473,505.096L450.531,689.904L228.445,646.279C228.445,646.279 448.548,691.887 450.531,689.904C452.514,687.921 313.71,769.22 313.71,769.22L218.911,919.611" style="fill:none;stroke:rgb(9,0,0);stroke-width:3.03px;"/>
                    <path d="M317.279,769.815L229.568,646.007" style="fill:none;stroke:rgb(9,0,0);stroke-width:3.03px;"/>
                    <path d="M348.547,773.186L433.082,774.574L460.842,819.388L377.893,816.017L348.547,773.186Z" style="fill:none;stroke:rgb(9,0,0);stroke-width:6.06px;"/>
                    <path d="M365.266,773.186L315.693,769.22L218.332,918.534L498.121,886.212L460.446,818.793L498.121,886.212" style="fill:none;stroke:rgb(9,0,0);stroke-width:3.03px;"/>
                    <path d="M451.284,688.487L432.685,773.186" style="fill:none;stroke:rgb(9,0,0);stroke-width:3.03px;"/>
                </g>
            </g>
        </g>
        <g transform="matrix(-1,0,0,1,1180.43,0)">
            <g>
                <g>
                    <g>
                        <path d="M592.998,499.541L480.229,505.332" style="fill:none;stroke:black;stroke-width:3.03px;"/>
                        <path d="M371.169,535.076L480.229,505.332L371.169,535.076Z" style="fill:none;stroke:black;stroke-width:3.03px;"/>
                        <path d="M228.399,646.119L371.169,535.076L228.399,646.119Z" style="fill:none;stroke:black;stroke-width:3.03px;"/>
                        <path d="M228.399,644.136L218.286,919.761L293.835,1056.58L414.793,1094.26L527.819,1173.83L589.273,1174.84" style="fill:none;stroke:black;stroke-width:3.03px;"/>
                        <path d="M228.994,646.714L194.689,568.786L210.552,408.169L325.561,483.52L371.169,533.093" style="fill:none;stroke:black;stroke-width:3.03px;"/>
                    </g>
                </g>
                <g>
                    <path d="M195.681,570.527L299.784,590.852L326.553,485.014L299.784,590.852L212.287,410.159" style="fill:none;stroke:rgb(9,0,0);stroke-width:3.03px;"/>
                    <path d="M528.658,1173.74L529.848,1064.67L589.335,1042.86L577.438,987.341L529.848,957.597L589.335,967.512" style="fill:none;stroke:rgb(9,0,0);stroke-width:3.03px;"/>
                    <path d="M591.318,931.819L535.797,939.751L529.451,957.597L535.797,939.751L498.121,884.229L591.318,931.819Z" style="fill:none;stroke:rgb(9,0,0);stroke-width:3.03px;"/>
                    <path d="M383.112,999.238L383.112,999.238Z" style="fill:none;stroke:rgb(9,0,0);stroke-width:3.03px;"/>
                    <path d="M220.315,918.335L383.112,999.238L500.104,884.229L383.112,999.238L417.218,1095.21L529.848,955.614C529.848,955.614 473.119,1021.46 476.697,1024.23C480.275,1027 531.831,1064.67 531.831,1064.67" style="fill:none;stroke:rgb(9,0,0);stroke-width:3.03px;"/>
                    <path d="M475.507,1024.23L500.104,884.229L218.911,919.611L500.104,884.229L519.933,779.135L450.531,689.904L590.703,592.741L480.473,505.096L371.611,534.641L450.531,689.904L480.473,505.096L450.531,689.904L228.445,646.279C228.445,646.279 448.548,691.887 450.531,689.904C452.514,687.921 313.71,769.22 313.71,769.22L218.911,919.611" style="fill:none;stroke:rgb(9,0,0);stroke-width:3.03px;"/>
                    <path d="M317.279,769.815L229.568,646.007" style="fill:none;stroke:rgb(9,0,0);stroke-width:3.03px;"/>
                    <path d="M348.547,773.186L433.082,774.574L460.842,819.388L377.893,816.017L348.547,773.186Z" style="fill:none;stroke:rgb(9,0,0);stroke-width:6.06px;"/>
                    <path d="M365.266,773.186L315.693,769.22L218.332,918.534L498.121,886.212L460.446,818.793L498.121,886.212" style="fill:none;stroke:rgb(9,0,0);stroke-width:3.03px;"/>
                    <path d="M449.916,689.311L432.685,773.186" style="fill:none;stroke:rgb(9,0,0);stroke-width:3.03px;"/>
                </g>
            </g>
        </g>
    </g>
    <g transform="matrix(0.708585,0,0,0.708585,943.297,915.975)">
        <path d="M1045.41,1030.07C1052.12,1030.07 1078.99,1025.97 1082.1,1029.08C1085.12,1032.1 1085.17,1042.45 1085.37,1047.02C1085.63,1052.84 1086.66,1076.07 1083.09,1079.64C1072.31,1090.42 1049.38,1084.8 1049.38,1069.72" style="fill:none;stroke:black;stroke-width:5.88px;"/>
        <path d="M1045.41,1031.06C1045.41,1032.96 1044.91,1040.08 1045.81,1040.97" style="fill:none;stroke:black;stroke-width:5.88px;"/>
        <path d="M1060.29,1070.72C1047.06,1057.49 1031.02,1064.04 1023.6,1075.67C1021.79,1078.53 1020.29,1082.69 1020.13,1086.58C1019.85,1093.49 1019.18,1104.58 1022.12,1111.17C1027.36,1122.92 1050.92,1129.95 1064.25,1116.32C1069.7,1110.75 1063.19,1101.8 1060.29,1100.46C1056.09,1098.52 1046.41,1100.46 1046.41,1100.46C1046.41,1100.46 1064.09,1097.16 1067.23,1103.43C1068.72,1106.41 1067.23,1127.52 1067.23,1121.28" style="fill:none;stroke:black;stroke-width:5.88px;"/>
    </g>
</svg>
