<?xml version="1.0" encoding="UTF-8" standalone="no"?>
<!DOCTYPE svg PUBLIC "-//W3C//DTD SVG 1.1//EN" "http://www.w3.org/Graphics/SVG/1.1/DTD/svg11.dtd">
<svg width="100%" height="100%" viewBox="0 0 400 45" version="1.1" xmlns="http://www.w3.org/2000/svg" xmlns:xlink="http://www.w3.org/1999/xlink" xml:space="preserve" xmlns:serif="http://www.serif.com/" style="fill-rule:evenodd;clip-rule:evenodd;stroke-linejoin:round;stroke-miterlimit:2;">
    <g transform="matrix(1,0,0,1,0,-195.111)">
        <g id="Forward--small-" serif:id="Forward (small)" transform="matrix(5.34757,7.56365e-32,0,2.04545,-1264.16,-227.275)">
            <path d="M311.2,217.5L300,206.5L300,213L236.4,213L236.4,222L300,222L300,228.5L311.2,217.5Z" style="fill:rgb(130,130,130);fill-rule:nonzero;"/>
        </g>
        <g transform="matrix(1.0086,0,0,1.0086,-8.19335,-4.56606)">
            <circle cx="83.321" cy="220.282" r="19.829" style="fill:rgb(130,130,130);"/>
        </g>
        <g transform="matrix(0.756454,0,0,0.756454,12.816,50.9781)">
            <circle cx="83.321" cy="220.282" r="19.829" style="fill:white;"/>
        </g>
        <g transform="matrix(1.0086,0,0,1.0086,85.9624,-4.56606)">
            <circle cx="83.321" cy="220.282" r="19.829" style="fill:rgb(130,130,130);"/>
        </g>
        <g transform="matrix(1.0086,0,0,1.0086,180.692,-4.56606)">
            <circle cx="83.321" cy="220.282" r="19.829" style="fill:rgb(130,130,130);"/>
        </g>
        <g transform="matrix(0.756454,0,0,0.756454,106.972,50.9781)">
            <circle cx="83.321" cy="220.282" r="19.829" style="fill:white;"/>
        </g>
        <g transform="matrix(0.756454,0,0,0.756454,201.701,50.9781)">
            <circle cx="83.321" cy="220.282" r="19.829" style="fill:white;"/>
        </g>
    </g>
</svg>
