<?xml version="1.0" encoding="UTF-8" standalone="no"?>
<!DOCTYPE svg PUBLIC "-//W3C//DTD SVG 1.1//EN" "http://www.w3.org/Graphics/SVG/1.1/DTD/svg11.dtd">
<svg width="100%" height="100%" viewBox="0 0 1105 1284" version="1.1" xmlns="http://www.w3.org/2000/svg" xmlns:xlink="http://www.w3.org/1999/xlink" xml:space="preserve" xmlns:serif="http://www.serif.com/" style="fill-rule:evenodd;clip-rule:evenodd;stroke-linecap:round;stroke-linejoin:round;stroke-miterlimit:1.5;">
    <g transform="matrix(1,0,0,1,-320.265,-159.371)">
        <g transform="matrix(1,-1.11022e-16,1.11022e-16,1,-725.795,-1003.92)">
            <path d="M1789.41,1372.21L1418.5,1940.52L1386.33,1978.83L1261.51,1977.84L1163.14,2103.39L1167.17,2201.97L1132.19,2279.43L1057.95,2256.45L1051.06,2347.34L1184.11,2441.41L1325.46,2409.6L1468.12,2328.23L1535.69,2202.08L1497.29,2066.13L1527.1,2025.96L2005.19,1557.43L2145.77,1168.29L1789.41,1372.21Z" style="fill:none;stroke:black;stroke-width:10px;"/>
        </g>
        <g transform="matrix(1,0,0,1,-729.411,-1007.06)">
            <path d="M2008.48,1560.07L1475.26,1980.28L1790.31,1376.57L2008.48,1560.07Z" style="fill:none;stroke:black;stroke-width:10px;"/>
        </g>
        <g transform="matrix(1,0,0,1,-729.411,-1007.06)">
            <path d="M1389.95,1980.28L1500,2068.95" style="fill:none;stroke:black;stroke-width:10px;"/>
        </g>
        <g transform="matrix(1,0,0,1,-729.411,-1007.06)">
            <path d="M1423.95,1944.28L1526.57,2024.61" style="fill:none;stroke:black;stroke-width:10px;"/>
        </g>
        <g transform="matrix(1,0,0,1,-729.411,-1007.06)">
            <path d="M2149.38,1171.43L1587.23,1844.61L1475.26,1980.28" style="fill:none;stroke:black;stroke-width:10px;"/>
        </g>
        <g transform="matrix(1,0,0,1,-729.411,-1007.06)">
            <path d="M1064.28,2260.92L1188.16,2444.55L1064.28,2260.92Z" style="fill:none;stroke:black;stroke-width:10px;"/>
        </g>
        <g transform="matrix(1,0,0,1,-729.411,-1007.06)">
            <path d="M1064.28,2260.92L1326.99,2411.34" style="fill:none;stroke:black;stroke-width:10px;"/>
        </g>
        <g transform="matrix(1,0,0,1,-729.411,-1007.06)">
            <path d="M1500,2068.95L1141.34,2282.57L1389.95,1980.28L1141.34,2282.57L1267.06,1982.94" style="fill:none;stroke:black;stroke-width:10px;"/>
        </g>
        <g transform="matrix(1,0,0,1,-729.411,-1007.06)">
            <path d="M1141.34,2277.98L1537.47,2205.34L1141.34,2277.98Z" style="fill:none;stroke:black;stroke-width:10px;"/>
        </g>
        <g transform="matrix(1,0,0,1,-729.411,-1007.06)">
            <path d="M1468.2,2329.24L1136.22,2282.57" style="fill:none;stroke:black;stroke-width:10px;"/>
        </g>
    </g>
</svg>
