<?xml version="1.0" encoding="UTF-8" standalone="no"?>
<!DOCTYPE svg PUBLIC "-//W3C//DTD SVG 1.1//EN" "http://www.w3.org/Graphics/SVG/1.1/DTD/svg11.dtd">
<svg width="100%" height="100%" viewBox="0 0 1182 1182" version="1.1" xmlns="http://www.w3.org/2000/svg" xmlns:xlink="http://www.w3.org/1999/xlink" xml:space="preserve" xmlns:serif="http://www.serif.com/" style="fill-rule:evenodd;clip-rule:evenodd;stroke-linecap:round;stroke-linejoin:round;stroke-miterlimit:1.5;">
    <rect x="-39.239" y="-20.71" width="1290.88" height="1240.14" style="fill:rgb(228,255,242);stroke:black;stroke-width:6.25px;"/>
    <circle cx="202.111" cy="172.383" r="111.569" style="fill:rgb(228,255,242);stroke:rgb(207,255,232);stroke-width:4.17px;"/>
    <g transform="matrix(1,0,0,1,230.068,-191.261)">
        <circle cx="202.111" cy="172.383" r="111.569" style="fill:rgb(228,255,242);stroke:rgb(207,255,232);stroke-width:4.17px;"/>
    </g>
    <g transform="matrix(1,0,0,1,604.275,-121.964)">
        <circle cx="202.111" cy="172.383" r="111.569" style="fill:rgb(228,255,242);stroke:rgb(207,255,232);stroke-width:4.17px;"/>
    </g>
    <g transform="matrix(1,0,0,1,914.728,2.7719)">
        <circle cx="202.111" cy="172.383" r="111.569" style="fill:rgb(228,255,242);stroke:rgb(207,255,232);stroke-width:4.17px;"/>
    </g>
    <g transform="matrix(1,0,0,1,-182.946,238.384)">
        <circle cx="202.111" cy="172.383" r="111.569" style="fill:rgb(228,255,242);stroke:rgb(207,255,232);stroke-width:4.17px;"/>
    </g>
    <g transform="matrix(1,0,0,1,634.766,218.98)">
        <circle cx="202.111" cy="172.383" r="111.569" style="fill:rgb(228,255,242);stroke:rgb(207,255,232);stroke-width:4.17px;"/>
    </g>
    <g transform="matrix(1,0,0,1,914.728,407.47)">
        <circle cx="202.111" cy="172.383" r="111.569" style="fill:rgb(228,255,242);stroke:rgb(207,255,232);stroke-width:4.17px;"/>
    </g>
    <g transform="matrix(1,0,0,1,604.275,529.433)">
        <circle cx="202.111" cy="172.383" r="111.569" style="fill:rgb(228,255,242);stroke:rgb(207,255,232);stroke-width:4.17px;"/>
    </g>
    <g transform="matrix(1,0,0,1,329.856,681.888)">
        <circle cx="202.111" cy="172.383" r="111.569" style="fill:rgb(228,255,242);stroke:rgb(207,255,232);stroke-width:4.17px;"/>
    </g>
    <g transform="matrix(1,0,0,1,155.227,917.5)">
        <circle cx="202.111" cy="172.383" r="111.569" style="fill:rgb(228,255,242);stroke:rgb(207,255,232);stroke-width:4.17px;"/>
    </g>
    <g transform="matrix(1,0,0,1,-119.192,692.976)">
        <circle cx="202.111" cy="172.383" r="111.569" style="fill:rgb(228,255,242);stroke:rgb(207,255,232);stroke-width:4.17px;"/>
    </g>
    <g transform="matrix(1,0,0,1,498.942,898.096)">
        <circle cx="202.111" cy="172.383" r="111.569" style="fill:rgb(228,255,242);stroke:rgb(207,255,232);stroke-width:4.17px;"/>
    </g>
    <g transform="matrix(1,0,0,1,875.921,717.923)">
        <circle cx="202.111" cy="172.383" r="111.569" style="fill:rgb(228,255,242);stroke:rgb(207,255,232);stroke-width:4.17px;"/>
    </g>
    <g transform="matrix(1,0,0,1,809.396,975.71)">
        <circle cx="202.111" cy="172.383" r="111.569" style="fill:rgb(228,255,242);stroke:rgb(207,255,232);stroke-width:4.17px;"/>
    </g>
    <g transform="matrix(1,0,0,1,74.8414,487.855)">
        <circle cx="202.111" cy="172.383" r="111.569" style="fill:rgb(228,255,242);stroke:rgb(207,255,232);stroke-width:4.17px;"/>
    </g>
    <g transform="matrix(1,0,0,1,329.856,83.1571)">
        <circle cx="202.111" cy="172.383" r="111.569" style="fill:rgb(228,255,242);stroke:rgb(207,255,232);stroke-width:4.17px;"/>
    </g>
    <g transform="matrix(0.553366,0,0,0.553366,484.914,501.923)">
        <path d="M1045.41,1030.07C1052.12,1030.07 1078.99,1025.97 1082.1,1029.08C1085.12,1032.1 1085.17,1042.45 1085.37,1047.02C1085.63,1052.84 1086.66,1076.07 1083.09,1079.64C1072.31,1090.42 1049.38,1084.8 1049.38,1069.72" style="fill:none;stroke:black;stroke-width:7.53px;"/>
        <path d="M1045.41,1031.06C1045.41,1032.96 1044.91,1040.08 1045.81,1040.97" style="fill:none;stroke:black;stroke-width:7.53px;"/>
        <path d="M1060.29,1070.72C1047.06,1057.49 1031.02,1064.04 1023.6,1075.67C1021.79,1078.53 1020.29,1082.69 1020.13,1086.58C1019.85,1093.49 1019.18,1104.58 1022.12,1111.17C1027.36,1122.92 1050.92,1129.95 1064.25,1116.32C1069.7,1110.75 1063.19,1101.8 1060.29,1100.46C1056.09,1098.52 1046.41,1100.46 1046.41,1100.46C1046.41,1100.46 1064.09,1097.16 1067.23,1103.43C1068.72,1106.41 1067.23,1127.52 1067.23,1121.28" style="fill:none;stroke:black;stroke-width:7.53px;"/>
    </g>
    <g>
        <g transform="matrix(0.643309,0,0,0.728155,208.982,66.1003)">
            <path d="M374.737,463.525L531.786,396.455L661.297,395.933L814.818,462.72L892.675,568.709L875.609,818.183L805.645,954.737L682.709,1042.67L506.96,1043.72L384.645,954.592L313.906,817.946L297.419,567.773L374.737,463.525Z" style="fill:none;stroke:black;stroke-width:16.15px;"/>
        </g>
        <g transform="matrix(0.503269,0,0,0.567166,291.299,182.34)">
            <path d="M374.737,463.525L531.786,396.455L661.297,395.933L814.818,462.72L892.675,568.709L875.609,818.183L805.645,954.737L682.709,1042.67L506.96,1043.72L384.645,954.592L313.906,817.946L297.419,567.773L374.737,463.525Z" style="fill:none;stroke:black;stroke-width:15.53px;"/>
        </g>
        <g transform="matrix(1,0,0,1.02215,-1.75345,86.1638)">
            <path d="M552.747,262.331L551.641,226.6L540.584,197.908L541.559,182.285L543.52,158.018L581.161,129.161L604.775,129.079L642.803,157.215L646.078,198.29L634.645,226.886L634.454,240.882L634.708,262.331" style="fill:none;stroke:black;stroke-width:6.18px;"/>
        </g>
        <path d="M550.994,354.306L579.407,218.186L602.238,218.26L632.407,352.957L540.201,287.521C539.208,267.902 541.025,248.357 541.025,248.357L579.407,218.186L602.238,218.26L642.03,247.654L644.03,289.22L550.994,354.306Z" style="fill:none;stroke:black;stroke-width:6.25px;"/>
        <path d="M641.33,287.945L542.751,248.429L641.33,287.945Z" style="fill:none;stroke:black;stroke-width:6.25px;"/>
        <path d="M540.201,288.37L640.48,247.154" style="fill:none;stroke:black;stroke-width:6.25px;"/>
        <g transform="matrix(1,0,0,1,-1,0)">
            <path d="M558.235,407.294L568.555,460.109L615.049,460.477L622.957,407.144L615.049,460.477L647.405,477.828L700.88,444.89L647.405,478.187L646.54,516.766L612.602,536.443L572.606,536.021L538.893,516.012L538.074,478.714L568.555,460.109L538.074,478.714L480.638,446.085" style="fill:none;stroke:black;stroke-width:6.25px;"/>
        </g>
        <g transform="matrix(1,0,0,1,0,5)">
            <path d="M571.606,531.021L532.519,560.149L532.519,600.328L571.741,629.311L611.416,629.79L652.579,601.012L651.134,560.277L611.886,530.926" style="fill:none;stroke:black;stroke-width:6.25px;"/>
        </g>
        <g transform="matrix(1,0,0,1,0,99)">
            <path d="M571.606,536.021L537.519,560.149L537.519,595.328L571.741,619.311L611.416,619.79L647.579,596.012L646.134,560.277L611.886,535.926" style="fill:none;stroke:black;stroke-width:6.25px;"/>
        </g>
        <g transform="matrix(0.985576,0,0,0.952381,7.75865,25.0482)">
            <path d="M537.893,516.012L485.971,526.012L440.364,505.191" style="fill:none;stroke:black;stroke-width:6.45px;"/>
        </g>
        <g transform="matrix(-0.989834,0,0,0.952381,1176.78,25.0482)">
            <path d="M537.893,516.012L485.971,526.012L440.364,505.191" style="fill:none;stroke:black;stroke-width:6.43px;"/>
        </g>
        <path d="M695.749,526.012L692.357,561.688L650.82,565.888" style="fill:none;stroke:black;stroke-width:6.25px;"/>
        <g transform="matrix(-1,0,0,1,1182.57,0)">
            <path d="M695.749,526.012L692.357,561.688L650.82,565.888" style="fill:none;stroke:black;stroke-width:6.25px;"/>
        </g>
        <g transform="matrix(1,0,0,1.32388,-1.13687e-13,-181.921)">
            <path d="M490.213,561.688L484.693,589.464L483.46,598.815L505.24,624.467L531.812,595.223" style="fill:none;stroke:black;stroke-width:5.33px;"/>
        </g>
        <g transform="matrix(-1,0,0,1.32388,1183.19,-181.921)">
            <path d="M490.213,561.688L484.693,589.464L483.46,598.815L505.24,624.467L531.812,595.223" style="fill:none;stroke:black;stroke-width:5.33px;"/>
        </g>
        <g transform="matrix(1,0,0,1,-1.48719,18.4411)">
            <path d="M484.649,591.804L451.861,627.052" style="fill:none;stroke:black;stroke-width:6.25px;"/>
        </g>
        <g transform="matrix(-0.989873,0.0108866,-0.0108866,0.988297,1186.21,20.0908)">
            <path d="M484.649,591.804L451.861,627.052" style="fill:none;stroke:black;stroke-width:6.25px;"/>
        </g>
        <g transform="matrix(0.991183,0.0203641,0.0203641,0.952969,-10.2968,23.7806)">
            <path d="M572.399,716.41L546.216,775.01" style="fill:none;stroke:black;stroke-width:6.3px;"/>
        </g>
        <g transform="matrix(-0.988766,0.0257635,-0.025753,0.94093,1196.3,29.3147)">
            <path d="M572.399,716.41L546.216,775.01" style="fill:none;stroke:black;stroke-width:6.31px;"/>
        </g>
        <path d="M648.099,694.657L696.106,723.144" style="fill:none;stroke:black;stroke-width:6.25px;"/>
        <g transform="matrix(-1,0,0,1,1183.2,0)">
            <path d="M648.099,694.657L696.106,723.144" style="fill:none;stroke:black;stroke-width:6.25px;"/>
        </g>
        <path d="M490.742,561.688L446.872,573.96" style="fill:none;stroke:black;stroke-width:6.25px;"/>
        <g transform="matrix(-1,0,0,1,1183.61,0)">
            <path d="M490.742,561.688L446.872,573.96" style="fill:none;stroke:black;stroke-width:6.25px;"/>
        </g>
        <g transform="matrix(1.19248,-0.145236,-0.145236,1.10959,10.3064,0.757131)">
            <path d="M493.812,644.943L467.345,677.955L493.812,644.943Z" style="fill:none;stroke:black;stroke-width:6.21px;"/>
        </g>
        <g transform="matrix(-1.19248,-0.145236,0.145236,1.10959,1173.34,0.757131)">
            <path d="M493.812,644.943L467.345,677.955L493.812,644.943Z" style="fill:none;stroke:black;stroke-width:6.21px;"/>
        </g>
        <g transform="matrix(0.973311,-0.0125028,-0.0125028,0.994143,21.5511,10.096)">
            <path d="M538.514,660.126L505.498,644.659" style="fill:none;stroke:black;stroke-width:6.43px;"/>
        </g>
        <g transform="matrix(-0.973311,-0.0125028,0.0125028,0.994143,1161.39,10.096)">
            <path d="M538.514,660.126L505.498,644.659" style="fill:none;stroke:black;stroke-width:6.43px;"/>
        </g>
        <g>
            <g transform="matrix(0.821035,0,0,0.821035,93.9414,63.3594)">
                <path d="M478.571,390.639L387.248,335.097L298.963,322.898L237.262,348.058L192.055,408.997L182.143,466.954L186.366,500.573L191.503,528.33L224.164,499.69L280.766,446.272L374.686,411.338C374.686,411.338 410.043,422.189 425.53,425.407" style="fill:none;stroke:black;stroke-width:7.61px;"/>
            </g>
            <path d="M411.885,338.486L401.571,401.083L342.36,328.863L325.257,426.274L291.052,349.684L325.257,426.274L253.129,397.274L325.257,426.274L246.436,447.094" style="fill:none;stroke:black;stroke-width:6.25px;"/>
            <g transform="matrix(-1,0,0,1,852.092,-1)">
                <path d="M370.526,383.332L450.181,399.504" style="fill:none;stroke:black;stroke-width:6.25px;"/>
            </g>
        </g>
        <g transform="matrix(-1,0,0,1,1186.35,0)">
            <g transform="matrix(0.821035,0,0,0.821035,93.9414,63.3594)">
                <path d="M478.571,390.639L387.248,335.097L298.963,322.898L237.262,348.058L192.055,408.997L182.143,466.954L186.366,500.573L191.503,528.33L224.164,499.69L280.766,446.272L374.686,411.338C374.686,411.338 410.043,422.189 425.53,425.407" style="fill:none;stroke:black;stroke-width:7.61px;"/>
            </g>
            <path d="M411.885,338.486L401.571,401.083L342.36,328.863L325.257,426.274L291.052,349.684L325.257,426.274L253.129,397.274L325.257,426.274L246.436,447.094" style="fill:none;stroke:black;stroke-width:6.25px;"/>
            <g transform="matrix(-1,0,0,1,852.092,-1)">
                <path d="M370.526,383.332L450.181,399.504" style="fill:none;stroke:black;stroke-width:6.25px;"/>
            </g>
        </g>
        <g>
            <g transform="matrix(0.949749,-0.545224,0.545224,0.949749,-232.628,255.115)">
                <path d="M316.446,684.053L262.726,705.631L233.188,746.068L227.675,774.221L229.435,805.441L257.846,781.458L290.008,762.523L331.348,750.068" style="fill:none;stroke:black;stroke-width:5.71px;"/>
            </g>
            <path d="M438.33,856.72L406.919,866.297" style="fill:none;stroke:black;stroke-width:6.25px;"/>
            <path d="M438.33,856.72L399.133,835.746L458.026,821.469L403.298,782.207L486.58,791.725" style="fill:none;stroke:black;stroke-width:6.25px;"/>
        </g>
        <g transform="matrix(-1,0,0,1,1184.64,0)">
            <g transform="matrix(0.949749,-0.545224,0.545224,0.949749,-232.628,255.115)">
                <path d="M316.446,684.053L262.726,705.631L233.188,746.068L227.675,774.221L229.435,805.441L257.846,781.458L290.008,762.523L331.348,750.068" style="fill:none;stroke:black;stroke-width:5.71px;"/>
            </g>
            <path d="M438.33,856.72L406.919,866.297" style="fill:none;stroke:black;stroke-width:6.25px;"/>
            <path d="M438.33,856.72L399.133,835.746L458.026,821.469L403.298,782.207L486.58,791.725" style="fill:none;stroke:black;stroke-width:6.25px;"/>
        </g>
        <g transform="matrix(0.881423,0,0,0.906726,67.9721,77.0912)">
            <path d="M573.23,826.501L577.77,866.554L595.622,885.951L612.102,892.35L625.897,893.878L610.646,858.158L610.11,832.017" style="fill:none;stroke:black;stroke-width:6.99px;"/>
        </g>
        <path d="M552.524,354.713L557.878,407.657L552.524,354.713Z" style="fill:none;stroke:black;stroke-width:6.25px;"/>
        <g transform="matrix(-0.99344,-0.114355,-0.114355,0.99344,1222.92,67.1803)">
            <path d="M552.524,354.713L557.878,407.657L552.524,354.713Z" style="fill:none;stroke:black;stroke-width:6.25px;"/>
        </g>
        <path d="M734.555,403.493L700.053,444.539" style="fill:none;stroke:black;stroke-width:6.25px;"/>
        <path d="M783.93,479.637L742.289,505.811" style="fill:none;stroke:black;stroke-width:6.25px;"/>
        <path d="M734.555,645.012L772.627,660.479" style="fill:none;stroke:black;stroke-width:6.25px;"/>
        <path d="M697.078,725.32L726.822,761.607" style="fill:none;stroke:black;stroke-width:6.25px;"/>
        <path d="M636.401,772.91L647.704,824.664" style="fill:none;stroke:black;stroke-width:6.25px;"/>
        <path d="M535.867,826.448L547.17,773.505" style="fill:none;"/>
        <clipPath id="_clip1">
            <path d="M535.867,826.448L547.17,773.505"/>
        </clipPath>
        <g clip-path="url(#_clip1)">
            <rect x="-41.222" y="-32.608" width="1250.23" height="1250.23" style="fill:rgb(235,235,235);stroke:black;stroke-width:6.25px;"/>
        </g>
        <path d="M535.867,826.448L547.17,773.505" style="fill:none;stroke:black;stroke-width:6.25px;"/>
        <path d="M456.749,759.823L487.088,723.535" style="fill:none;stroke:black;stroke-width:6.25px;"/>
        <path d="M412.133,661.073L450.8,643.822" style="fill:none;stroke:black;stroke-width:6.25px;"/>
        <path d="M400.831,480.232L441.282,506.406" style="fill:none;stroke:black;stroke-width:6.25px;"/>
        <path d="M450.8,404.088L480.544,445.729" style="fill:none;stroke:black;stroke-width:6.25px;"/>
    </g>
</svg>
