<?xml version="1.0" encoding="UTF-8" standalone="no"?>
<!DOCTYPE svg PUBLIC "-//W3C//DTD SVG 1.1//EN" "http://www.w3.org/Graphics/SVG/1.1/DTD/svg11.dtd">
<svg width="100%" height="100%" viewBox="0 0 1182 1182" version="1.1" xmlns="http://www.w3.org/2000/svg" xmlns:xlink="http://www.w3.org/1999/xlink" xml:space="preserve" xmlns:serif="http://www.serif.com/" style="fill-rule:evenodd;clip-rule:evenodd;stroke-linejoin:round;stroke-miterlimit:1.5;">
    <rect x="-4.921" y="-7.382" width="1190.94" height="1184.93" style="fill:rgb(244,209,255);"/>
    <g>
        <path d="M446.804,645.304L385.785,580.437L452.045,616.948L385.785,580.437L560.156,588.772" style="fill:none;stroke:black;stroke-width:1px;"/>
        <g transform="matrix(0.99739,0.00199926,0.00199926,0.998469,-0.171413,0.131281)">
            <path d="M224.791,345.447L329.287,319.839L224.141,317.458L329.287,319.839L234.981,392.553" style="fill:none;stroke:black;stroke-width:1px;"/>
        </g>
        <path d="M427.788,379.18L389.461,407.437L329.18,320.259L293.866,406.522" style="fill:none;stroke:black;stroke-width:1px;"/>
        <path d="M294.244,405.924L259.251,442.795L294.244,405.924Z" style="fill:none;stroke:black;stroke-width:1px;"/>
        <path d="M234.611,393.158L294.244,406.357" style="fill:none;stroke:black;stroke-width:1px;"/>
        <path d="M293.653,406.215L315.446,483.689" style="fill:none;stroke:black;stroke-width:1px;"/>
        <path d="M453.749,504.082L293.659,406.194L389.525,407.57" style="fill:none;stroke:black;stroke-width:1px;"/>
        <g transform="matrix(0.998995,-0.00072302,-0.00072302,0.99948,0.580262,0.417483)">
            <path d="M317.817,526.961L333.6,505.731L315.361,484.364L258.618,443.099" style="fill:none;stroke:black;stroke-width:1px;"/>
        </g>
        <path d="M454.716,504.441L315.186,484.227L273.719,506.964" style="fill:none;stroke:black;stroke-width:1px;"/>
        <path d="M273.324,507.111L454.98,504.511L389.665,407.767L472.459,421.734" style="fill:none;stroke:black;stroke-width:1px;"/>
        <path d="M345.34,579.874L317.251,527.063L301.574,567.465L273.271,507.125L317.251,527.063" style="fill:none;stroke:black;stroke-width:1px;"/>
        <path d="M386.688,580.684L316.957,527.086" style="fill:none;stroke:black;stroke-width:1px;"/>
        <path d="M386.374,580.88L568.617,565.615L316.935,527.092L454.901,504.695L568.617,565.615L389.502,407.94L578.511,541.614" style="fill:none;stroke:black;stroke-width:1px;"/>
        <path d="M354.36,683.149L359.245,651.961L353.797,619.27L386.488,580.755" style="fill:none;stroke:black;stroke-width:1px;"/>
        <path d="M386.102,580.616L331.441,612.856L446.878,645.11L316.368,654.913L354.514,683.736L349.414,704.18" style="fill:none;stroke:black;stroke-width:1px;"/>
        <path d="M349.335,704.42L349.673,730.235" style="fill:none;stroke:black;stroke-width:1px;"/>
        <path d="M415.611,697.881L298.655,708.625" style="fill:none;stroke:black;stroke-width:1px;"/>
        <path d="M415.98,697.574L349.534,730.358L343.553,790.447L390.273,757.443L429.932,776.884L390.273,757.443L349.534,730.358L298.034,708.594L447.038,645.344" style="fill:none;stroke:black;stroke-width:1px;"/>
        <path d="M415.815,697.874L390.034,757.713" style="fill:none;stroke:black;stroke-width:1px;"/>
        <path d="M475.052,801.645L496.893,816.264L475.052,801.645Z" style="fill:none;stroke:black;stroke-width:1px;"/>
        <path d="M422.915,830.531L475.052,801.645L444.404,795.304L422.915,830.531Z" style="fill:none;stroke:black;stroke-width:1px;"/>
        <path d="M429.863,776.888L444.404,795.304L378.658,808.229L429.863,776.888Z" style="fill:none;stroke:black;stroke-width:1px;"/>
        <path d="M477.102,678.095L390.009,757.747L379.001,807.629" style="fill:none;stroke:black;stroke-width:1px;"/>
        <path d="M475.939,679.465L429.863,776.888" style="fill:none;stroke:black;stroke-width:1px;"/>
        <path d="M475.095,802.634L503.71,706.216L475.095,802.634Z" style="fill:none;stroke:black;stroke-width:1px;"/>
        <path d="M540.26,707.492L475.095,802.634" style="fill:none;stroke:black;stroke-width:1px;"/>
        <path d="M565.492,611.572L444.466,796.5" style="fill:none;stroke:black;stroke-width:1px;"/>
        <path d="M444.549,796.257L476.844,678.484L444.549,796.257Z" style="fill:none;stroke:black;stroke-width:1px;"/>
        <path d="M560.678,588.853L452.21,616.994L446.851,645.374L415.599,698.369L563.688,603.044" style="fill:none;stroke:black;stroke-width:1px;"/>
        <path d="M563.604,603.451L476.767,678.431" style="fill:none;stroke:black;stroke-width:1px;"/>
        <path d="M568.083,622.751L514.52,785.867" style="fill:none;stroke:black;stroke-width:1px;"/>
        <path id="Flügel-kontur" serif:id="Flügel kontur" d="M578.418,541.328L554.34,509.116L471.907,421.134L427.768,379.043L329.213,320.009L254.905,299.367L224.356,317.945L224.356,345.604L234.448,392.903L258.315,443.216L273.151,507.075L301.532,567.709L345.395,579.965L386.032,580.61L330.559,613.507L297.99,708.827L343.344,790.464L422.966,830.779L496.541,816.669L575.067,681.831" style="fill:none;stroke:black;stroke-width:1px;"/>
    </g>
    <g transform="matrix(-1,0,0,1,1180.44,0)">
        <path d="M446.804,645.304L385.785,580.437L452.045,616.948L385.785,580.437L560.156,588.772" style="fill:none;stroke:black;stroke-width:1px;"/>
        <g transform="matrix(0.99739,0.00199926,0.00199926,0.998469,-0.171413,0.131281)">
            <path d="M224.791,345.447L329.287,319.839L224.141,317.458L329.287,319.839L234.981,392.553" style="fill:none;stroke:black;stroke-width:1px;"/>
        </g>
        <path d="M427.788,379.18L389.461,407.437L329.18,320.259L293.866,406.522" style="fill:none;stroke:black;stroke-width:1px;"/>
        <path d="M294.244,405.924L259.251,442.795L294.244,405.924Z" style="fill:none;stroke:black;stroke-width:1px;"/>
        <path d="M234.611,393.158L294.244,406.357" style="fill:none;stroke:black;stroke-width:1px;"/>
        <path d="M293.653,406.215L315.446,483.689" style="fill:none;stroke:black;stroke-width:1px;"/>
        <path d="M453.749,504.082L293.659,406.194L389.525,407.57" style="fill:none;stroke:black;stroke-width:1px;"/>
        <g transform="matrix(0.998995,-0.00072302,-0.00072302,0.99948,0.580262,0.417483)">
            <path d="M317.817,526.961L333.6,505.731L315.361,484.364L258.618,443.099" style="fill:none;stroke:black;stroke-width:1px;"/>
        </g>
        <path d="M454.716,504.441L315.186,484.227L273.719,506.964" style="fill:none;stroke:black;stroke-width:1px;"/>
        <path d="M273.324,507.111L454.98,504.511L389.665,407.767L472.459,421.734" style="fill:none;stroke:black;stroke-width:1px;"/>
        <path d="M345.34,579.874L317.251,527.063L301.574,567.465L273.271,507.125L317.251,527.063" style="fill:none;stroke:black;stroke-width:1px;"/>
        <path d="M386.688,580.684L316.957,527.086" style="fill:none;stroke:black;stroke-width:1px;"/>
        <path d="M386.374,580.88L568.617,565.615L316.935,527.092L454.901,504.695L568.617,565.615L389.502,407.94L577.818,541.152" style="fill:none;stroke:black;stroke-width:1px;"/>
        <path d="M354.36,683.149L359.245,651.961L353.797,619.27L386.488,580.755" style="fill:none;stroke:black;stroke-width:1px;"/>
        <path d="M386.102,580.616L331.441,612.856L446.878,645.11L316.368,654.913L354.514,683.736L349.414,704.18" style="fill:none;stroke:black;stroke-width:1px;"/>
        <path d="M349.335,704.42L349.673,730.235" style="fill:none;stroke:black;stroke-width:1px;"/>
        <path d="M415.611,697.881L298.655,708.625" style="fill:none;stroke:black;stroke-width:1px;"/>
        <path d="M415.98,697.574L349.534,730.358L343.553,790.447L390.273,757.443L429.932,776.884L390.273,757.443L349.534,730.358L298.034,708.594L447.038,645.344" style="fill:none;stroke:black;stroke-width:1px;"/>
        <path d="M415.815,697.874L390.034,757.713" style="fill:none;stroke:black;stroke-width:1px;"/>
        <path d="M475.052,801.645L496.893,816.264L475.052,801.645Z" style="fill:none;stroke:black;stroke-width:1px;"/>
        <path d="M422.915,830.531L475.052,801.645L444.404,795.304L422.915,830.531Z" style="fill:none;stroke:black;stroke-width:1px;"/>
        <path d="M429.863,776.888L444.404,795.304L378.658,808.229L429.863,776.888Z" style="fill:none;stroke:black;stroke-width:1px;"/>
        <path d="M477.102,678.095L390.009,757.747L379.001,807.629" style="fill:none;stroke:black;stroke-width:1px;"/>
        <path d="M475.939,679.465L429.863,776.888" style="fill:none;stroke:black;stroke-width:1px;"/>
        <path d="M475.095,802.634L503.71,706.216L475.095,802.634Z" style="fill:none;stroke:black;stroke-width:1px;"/>
        <path d="M540.26,707.492L475.095,802.634" style="fill:none;stroke:black;stroke-width:1px;"/>
        <path d="M565.492,611.572L444.466,796.5" style="fill:none;stroke:black;stroke-width:1px;"/>
        <path d="M444.549,796.257L476.844,678.484L444.549,796.257Z" style="fill:none;stroke:black;stroke-width:1px;"/>
        <path d="M560.678,588.853L452.21,616.994L446.851,645.374L415.599,698.369L563.688,603.044" style="fill:none;stroke:black;stroke-width:1px;"/>
        <path d="M563.604,603.451L476.767,678.431" style="fill:none;stroke:black;stroke-width:1px;"/>
        <path d="M568.083,622.751L514.52,785.867" style="fill:none;stroke:black;stroke-width:1px;"/>
        <path id="Flügel-kontur1" serif:id="Flügel kontur" d="M578.418,541.328L554.34,509.116L471.907,421.134L427.768,379.043L329.213,320.009L254.905,299.367L224.356,317.945L224.356,345.604L234.448,392.903L258.315,443.216L273.151,507.075L301.532,567.709L345.395,579.965L386.032,580.61L330.559,613.507L297.99,708.827L343.344,790.464L422.966,830.779L496.541,816.669L575.067,681.831" style="fill:none;stroke:black;stroke-width:1px;"/>
    </g>
    <g id="Körper">
        <path d="M574.435,735.216L590.418,653.161L579.082,540.871L590.261,503.796" style="fill:none;stroke:black;stroke-width:1px;"/>
        <path d="M579.082,540.871L602.539,540.893" style="fill:none;stroke:black;stroke-width:1px;"/>
        <g transform="matrix(-1,0,0,1,1181.56,0)">
            <path d="M575.547,735.562L590.716,653.222L579.082,540.871L590.953,503.882" style="fill:none;stroke:black;stroke-width:1px;"/>
        </g>
        <g transform="matrix(1,0,0,1,-1,71)">
            <path d="M591.428,432.741L575.343,451.425L579.465,470.102L561.232,518.188L576.441,582.519L575.461,664.283L591.397,734.464" style="fill:none;stroke:black;stroke-width:1px;stroke-linecap:round;"/>
        </g>
        <g transform="matrix(-1,0,0,1,1181.63,71)">
            <path d="M590.995,433L575.343,451.425L579.465,470.102L561.232,518.188L576.441,582.519L575.461,664.283L591.397,734.464" style="fill:none;stroke:black;stroke-width:1px;stroke-linecap:round;"/>
        </g>
        <path d="M620.3,589.092L590.544,653.02L560.147,589.05" style="fill:none;stroke:black;stroke-width:1px;"/>
    </g>
    <g transform="matrix(0.553366,0,0,0.553366,484.914,501.923)">
        <path d="M1045.41,1030.07C1052.12,1030.07 1078.99,1025.97 1082.1,1029.08C1085.12,1032.1 1085.17,1042.45 1085.37,1047.02C1085.63,1052.84 1086.66,1076.07 1083.09,1079.64C1072.31,1090.42 1049.38,1084.8 1049.38,1069.72" style="fill:none;stroke:black;stroke-width:1.64px;stroke-linecap:round;"/>
        <path d="M1045.41,1031.06C1045.41,1032.96 1044.91,1040.08 1045.81,1040.97" style="fill:none;stroke:black;stroke-width:1.31px;stroke-linecap:round;"/>
        <path d="M1060.29,1070.72C1047.06,1057.49 1031.02,1064.04 1023.6,1075.67C1021.79,1078.53 1020.29,1082.69 1020.13,1086.58C1019.85,1093.49 1019.18,1104.58 1022.12,1111.17C1027.36,1122.92 1050.92,1129.95 1064.25,1116.32C1069.7,1110.75 1063.19,1101.8 1060.29,1100.46C1056.09,1098.52 1046.41,1100.46 1046.41,1100.46C1046.41,1100.46 1064.09,1097.16 1067.23,1103.43C1068.72,1106.41 1067.23,1127.52 1067.23,1121.28" style="fill:none;stroke:black;stroke-width:1.31px;stroke-linecap:round;"/>
    </g>
</svg>
